<svg width="30" height="30" viewBox="0 0 30 30" fill="none" xmlns="http://www.w3.org/2000/svg">
<path fill-rule="evenodd" clip-rule="evenodd" d="M16 10.3125C16.2652 10.3125 16.5196 10.4113 16.7071 10.5871C16.8946 10.7629 17 11.0014 17 11.25V14.0625H20C20.2652 14.0625 20.5196 14.1613 20.7071 14.3371C20.8946 14.5129 21 14.7514 21 15C21 15.2486 20.8946 15.4871 20.7071 15.6629C20.5196 15.8387 20.2652 15.9375 20 15.9375H17V18.75C17 18.9986 16.8946 19.2371 16.7071 19.4129C16.5196 19.5887 16.2652 19.6875 16 19.6875C15.7348 19.6875 15.4804 19.5887 15.2929 19.4129C15.1054 19.2371 15 18.9986 15 18.75V15.9375H12C11.7348 15.9375 11.4804 15.8387 11.2929 15.6629C11.1054 15.4871 11 15.2486 11 15C11 14.7514 11.1054 14.5129 11.2929 14.3371C11.4804 14.1613 11.7348 14.0625 12 14.0625H15V11.25C15 11.0014 15.1054 10.7629 15.2929 10.5871C15.4804 10.4113 15.7348 10.3125 16 10.3125Z" fill="#F0F0F0"/>
<path d="M6 0H26C27.0609 0 28.0783 0.395088 28.8284 1.09835C29.5786 1.80161 30 2.75544 30 3.75V26.25C30 27.2446 29.5786 28.1984 28.8284 28.9016C28.0783 29.6049 27.0609 30 26 30H6C4.93913 30 3.92172 29.6049 3.17157 28.9016C2.42143 28.1984 2 27.2446 2 26.25V24.375H4V26.25C4 26.7473 4.21071 27.2242 4.58579 27.5758C4.96086 27.9275 5.46957 28.125 6 28.125H26C26.5304 28.125 27.0391 27.9275 27.4142 27.5758C27.7893 27.2242 28 26.7473 28 26.25V3.75C28 3.25272 27.7893 2.77581 27.4142 2.42417C27.0391 2.07254 26.5304 1.875 26 1.875H6C5.46957 1.875 4.96086 2.07254 4.58579 2.42417C4.21071 2.77581 4 3.25272 4 3.75V5.625H2V3.75C2 2.75544 2.42143 1.80161 3.17157 1.09835C3.92172 0.395088 4.93913 0 6 0Z" fill="#F0F0F0"/>
<path d="M2 9.375V8.4375C2 8.18886 2.10536 7.9504 2.29289 7.77459C2.48043 7.59877 2.73478 7.5 3 7.5C3.26522 7.5 3.51957 7.59877 3.70711 7.77459C3.89464 7.9504 4 8.18886 4 8.4375V9.375H5C5.26522 9.375 5.51957 9.47377 5.70711 9.64959C5.89464 9.8254 6 10.0639 6 10.3125C6 10.5611 5.89464 10.7996 5.70711 10.9754C5.51957 11.1512 5.26522 11.25 5 11.25H1C0.734784 11.25 0.48043 11.1512 0.292893 10.9754C0.105357 10.7996 0 10.5611 0 10.3125C0 10.0639 0.105357 9.8254 0.292893 9.64959C0.48043 9.47377 0.734784 9.375 1 9.375H2ZM2 15V14.0625C2 13.8139 2.10536 13.5754 2.29289 13.3996C2.48043 13.2238 2.73478 13.125 3 13.125C3.26522 13.125 3.51957 13.2238 3.70711 13.3996C3.89464 13.5754 4 13.8139 4 14.0625V15H5C5.26522 15 5.51957 15.0988 5.70711 15.2746C5.89464 15.4504 6 15.6889 6 15.9375C6 16.1861 5.89464 16.4246 5.70711 16.6004C5.51957 16.7762 5.26522 16.875 5 16.875H1C0.734784 16.875 0.48043 16.7762 0.292893 16.6004C0.105357 16.4246 0 16.1861 0 15.9375C0 15.6889 0.105357 15.4504 0.292893 15.2746C0.48043 15.0988 0.734784 15 1 15H2ZM2 20.625V19.6875C2 19.4389 2.10536 19.2004 2.29289 19.0246C2.48043 18.8488 2.73478 18.75 3 18.75C3.26522 18.75 3.51957 18.8488 3.70711 19.0246C3.89464 19.2004 4 19.4389 4 19.6875V20.625H5C5.26522 20.625 5.51957 20.7238 5.70711 20.8996C5.89464 21.0754 6 21.3139 6 21.5625C6 21.8111 5.89464 22.0496 5.70711 22.2254C5.51957 22.4012 5.26522 22.5 5 22.5H1C0.734784 22.5 0.48043 22.4012 0.292893 22.2254C0.105357 22.0496 0 21.8111 0 21.5625C0 21.3139 0.105357 21.0754 0.292893 20.8996C0.48043 20.7238 0.734784 20.625 1 20.625H2Z" fill="#F0F0F0"/>
</svg>
