<svg width="82" height="95" viewBox="0 0 82 95" fill="none" xmlns="http://www.w3.org/2000/svg">
<g filter="url(#filter0_d_377_59)">
<path d="M18.6677 76.3591C15.1975 76.3769 12.1396 75.9523 9.49406 75.0854C6.84828 74.1667 4.46003 72.9359 2.32933 71.3929L5.5524 62.6747C7.78621 64.1135 9.94055 65.1643 12.0154 65.827C14.0903 66.4896 16.3967 66.8145 18.9346 66.8014C20.9028 66.7913 22.6103 66.42 24.0572 65.6874C25.5557 64.9028 26.7164 63.8868 27.5394 62.6395C28.3624 61.3922 28.7704 60.0175 28.7635 58.5154C28.7576 57.2206 28.3638 56.0572 27.5821 55.0253C26.8004 53.9934 25.502 53.2232 23.6868 52.7145L21.1198 52.0285C18.8378 51.3668 16.7097 50.3937 14.7356 49.1089C12.7614 47.8242 11.1742 46.2008 9.97391 44.2387C8.77337 42.2248 8.16679 39.8454 8.15418 37.1003C8.13919 33.8372 8.9547 30.9584 10.6007 28.4637C12.2982 25.917 14.6198 23.911 17.5654 22.4456C20.511 20.9802 23.9002 20.2376 27.733 20.2179C30.996 20.2012 33.8467 20.6268 36.2851 21.4948C38.7235 22.3628 40.7222 23.3625 42.2813 24.494L39.2895 32.8226C37.5753 31.7437 35.7848 30.9759 33.9181 30.5194C32.0511 30.011 30.2112 29.7615 28.3984 29.7708C26.0677 29.7828 24.153 30.1552 22.6543 30.888C21.2071 31.5688 20.1494 32.4547 19.4811 33.5459C18.8127 34.637 18.4811 35.7264 18.4861 36.8141C18.4915 38.0054 18.8328 39.0136 19.51 39.8389C20.2389 40.6639 21.3813 41.3054 22.9373 41.7636L25.1932 42.3736C29.6534 43.6455 33.0549 45.5704 35.3975 48.1481C37.792 50.7256 39.0245 54.0601 39.0951 58.1516C39.1642 61.9323 38.2986 65.174 36.4982 67.8766C34.6977 70.5792 32.247 72.6636 29.146 74.1298C26.045 75.596 22.5523 76.3391 18.6677 76.3591Z" fill="#F0F0F0"/>
</g>
<g filter="url(#filter1_d_377_59)">
<path d="M31.4685 73.1748L38.8735 23.665L52.8246 23.7905C56.8848 23.827 60.2081 24.4943 62.7946 25.7924C65.3812 27.0905 67.2784 28.9725 68.4864 31.4386C69.6944 33.9047 70.2607 36.9079 70.1854 40.4484C70.1156 43.2807 69.8082 46.3234 69.2629 49.5763C68.7653 52.7825 68.1985 55.7756 67.5626 58.5556C66.6817 62.4666 65.2411 65.499 63.241 67.653C61.2408 69.8069 58.7738 71.2956 55.8399 72.1191C52.9533 72.943 49.6451 73.3382 45.9153 73.3047L31.4685 73.1748ZM42.6522 65.0598L46.6888 65.0961C48.8133 65.1152 50.6092 64.8953 52.0766 64.4363C53.5911 63.9778 54.8729 63.0922 55.9221 61.7796C56.9713 60.467 57.7893 58.5386 58.3761 55.9942C58.7163 54.7696 59.0593 53.191 59.4052 51.2583C59.7511 49.3256 60.0497 47.3924 60.3012 45.4588C60.553 43.478 60.6842 41.8267 60.6947 40.5047C60.7565 38.6639 60.509 37.1272 59.9523 35.8945C59.4431 34.6151 58.5535 33.6628 57.2837 33.0376C56.0142 32.3652 54.27 32.019 52.0511 31.999L47.5188 31.9583L42.6522 65.0598Z" fill="#F0F0F0"/>
</g>
<g filter="url(#filter2_d_377_59)">
<path d="M45.1866 4.57713C44.3041 3.72996 43.0573 3.19281 41.7206 3.08379C40.3839 2.97477 39.0666 3.30282 38.0584 3.99578L2.32329 28.5623C2.07336 28.7341 1.86897 28.9457 1.72179 29.1848C1.57461 29.424 1.48753 29.6861 1.4655 29.9561C1.44348 30.2262 1.48695 30.4989 1.59343 30.7587C1.69992 31.0186 1.86733 31.2604 2.08611 31.4705C2.52795 31.8947 3.15221 32.1638 3.82156 32.2183C4.15299 32.2454 4.48551 32.2189 4.80013 32.1406C5.11476 32.0622 5.40533 31.9334 5.65526 31.7616L41.3857 7.19055L72.6625 37.2264C73.1044 37.6507 73.7287 37.9197 74.398 37.9743C75.0674 38.0289 75.727 37.8646 76.2317 37.5175C76.7365 37.1705 77.045 36.6691 77.0895 36.1237C77.134 35.5783 76.9107 35.0336 76.4689 34.6093L65.3902 23.9762L66.4934 10.4498C66.5378 9.90507 66.3148 9.36102 65.8736 8.9373C65.4323 8.51358 64.8088 8.24491 64.1403 8.19039L59.0991 7.77925C58.4306 7.72473 57.7719 7.88883 57.2677 8.23544C56.7636 8.58206 56.4555 9.08279 56.411 9.6275L55.9779 14.9387L45.1866 4.57713Z" fill="#F0F0F0"/>
</g>
<defs>
<filter id="filter0_d_377_59" x="0.089916" y="19.1408" width="48.4439" height="64.3194" filterUnits="userSpaceOnUse" color-interpolation-filters="sRGB">
<feFlood flood-opacity="0" result="BackgroundImageFix"/>
<feColorMatrix in="SourceAlpha" type="matrix" values="0 0 0 0 0 0 0 0 0 0 0 0 0 0 0 0 0 0 127 0" result="hardAlpha"/>
<feOffset dx="2.00496" dy="3.00744"/>
<feGaussianBlur stdDeviation="2.00496"/>
<feComposite in2="hardAlpha" operator="out"/>
<feColorMatrix type="matrix" values="0 0 0 0 0.0862745 0 0 0 0 0.117647 0 0 0 0 0.419608 0 0 0 0.25 0"/>
<feBlend mode="normal" in2="BackgroundImageFix" result="effect1_dropShadow_377_59"/>
<feBlend mode="normal" in="SourceGraphic" in2="effect1_dropShadow_377_59" result="shape"/>
</filter>
<filter id="filter1_d_377_59" x="25.4536" y="22.5995" width="46.9386" height="57.939" filterUnits="userSpaceOnUse" color-interpolation-filters="sRGB">
<feFlood flood-opacity="0" result="BackgroundImageFix"/>
<feColorMatrix in="SourceAlpha" type="matrix" values="0 0 0 0 0 0 0 0 0 0 0 0 0 0 0 0 0 0 127 0" result="hardAlpha"/>
<feOffset dx="-2.00496" dy="3.00744"/>
<feGaussianBlur stdDeviation="2.00496"/>
<feComposite in2="hardAlpha" operator="out"/>
<feColorMatrix type="matrix" values="0 0 0 0 0.0862745 0 0 0 0 0.117647 0 0 0 0 0.419608 0 0 0 0.25 0"/>
<feBlend mode="normal" in2="BackgroundImageFix" result="effect1_dropShadow_377_59"/>
<feBlend mode="normal" in="SourceGraphic" in2="effect1_dropShadow_377_59" result="shape"/>
</filter>
<filter id="filter2_d_377_59" x="5.84126e-06" y="2.14338" width="81.4748" height="40.761" filterUnits="userSpaceOnUse" color-interpolation-filters="sRGB">
<feFlood flood-opacity="0" result="BackgroundImageFix"/>
<feColorMatrix in="SourceAlpha" type="matrix" values="0 0 0 0 0 0 0 0 0 0 0 0 0 0 0 0 0 0 127 0" result="hardAlpha"/>
<feOffset dx="1.45992" dy="2"/>
<feGaussianBlur stdDeviation="1.45992"/>
<feComposite in2="hardAlpha" operator="out"/>
<feColorMatrix type="matrix" values="0 0 0 0 0.0862745 0 0 0 0 0.117647 0 0 0 0 0.419608 0 0 0 0.25 0"/>
<feBlend mode="normal" in2="BackgroundImageFix" result="effect1_dropShadow_377_59"/>
<feBlend mode="normal" in="SourceGraphic" in2="effect1_dropShadow_377_59" result="shape"/>
</filter>
</defs>
</svg>
