<svg width="30" height="30" viewBox="0 0 30 30" fill="none" xmlns="http://www.w3.org/2000/svg">
<path d="M11.9996 0.52079C12.1943 0.743424 12.3136 1.01556 12.3421 1.30223C12.3706 1.5889 12.307 1.87702 12.1596 2.12956C11.0027 4.11962 10.3988 6.35072 10.4036 8.61716C10.4036 16.1566 16.9594 22.2617 25.0391 22.2617C26.0951 22.2605 27.117 22.1605 28.105 21.9617C28.4072 21.9011 28.7218 21.9249 29.0097 22.0303C29.2977 22.1356 29.5463 22.3178 29.725 22.5542C29.9139 22.8004 30.0103 23.0983 29.9991 23.4014C29.9879 23.7044 29.8697 23.9954 29.663 24.2286C28.0943 26.035 26.1155 27.4905 23.8707 28.4889C21.626 29.4873 19.1719 30.0035 16.6874 30C7.46774 30 0 23.0361 0 14.456C0 7.9984 4.22785 2.45957 10.2476 0.112033C10.5474 -0.00740579 10.8805 -0.0321211 11.1965 0.0416226C11.5126 0.115366 11.7945 0.283561 11.9996 0.52079Z" fill="#F0F0F0"/>
</svg>
