<svg width="30" height="30" viewBox="0 0 30 30" fill="none" xmlns="http://www.w3.org/2000/svg">
<path d="M10.6065 22.0171C13.0842 23.8326 16.1561 24.6457 19.2077 24.2938C22.2593 23.942 25.0655 22.451 27.0648 20.1192C29.0642 17.7875 30.1092 14.7869 29.991 11.7178C29.8727 8.64872 28.5998 5.73744 26.4269 3.56643C24.254 1.39541 21.3414 0.124773 18.2718 0.00871192C15.2022 -0.10735 12.202 0.939728 9.87132 2.94046C7.54066 4.9412 6.0515 7.74804 5.70174 10.7994C5.35199 13.8508 6.16744 16.9218 7.98495 19.3978V19.396C7.90995 19.451 7.83806 19.5122 7.76931 19.5797L0.54981 26.7982C0.197948 27.1497 0.000177383 27.6267 0 28.124C-0.000175476 28.6214 0.197258 29.0985 0.548872 29.4503C0.900486 29.8021 1.37748 29.9998 1.87491 30C2.37234 30.0002 2.84947 29.8028 3.20133 29.4512L10.4208 22.2327C10.4887 22.1657 10.5495 22.0936 10.6065 22.0171ZM17.8147 22.5008C16.4603 22.5008 15.1192 22.2341 13.8679 21.7159C12.6166 21.1976 11.4796 20.4381 10.5219 19.4805C9.56422 18.5229 8.80453 17.3861 8.28623 16.135C7.76792 14.8839 7.50115 13.5429 7.50115 12.1887C7.50115 10.8345 7.76792 9.49357 8.28623 8.24245C8.80453 6.99133 9.56422 5.85453 10.5219 4.89696C11.4796 3.93939 12.6166 3.17981 13.8679 2.66158C15.1192 2.14334 16.4603 1.87661 17.8147 1.87661C20.55 1.87661 23.1733 2.96307 25.1075 4.89696C27.0417 6.83086 28.1283 9.45378 28.1283 12.1887C28.1283 14.9237 27.0417 17.5466 25.1075 19.4805C23.1733 21.4144 20.55 22.5008 17.8147 22.5008Z" fill="#F0F0F0"/>
</svg>
